<mxfile host="app.diagrams.net" modified="2023-03-28T02:27:49.309Z" agent="5.0 (Macintosh; Intel Mac OS X 10_15_7) AppleWebKit/605.1.15 (KHTML, like Gecko) Version/16.3 Safari/605.1.15" etag="om0rjUkAmvPOqsNroM8c" version="21.0.8" type="github">
  <diagram name="Page-1" id="Qx3osioQKjTRdbzoLK9N">
    <mxGraphModel dx="2150" dy="1010" grid="1" gridSize="10" guides="1" tooltips="1" connect="1" arrows="1" fold="1" page="0" pageScale="1" pageWidth="1920" pageHeight="1200" background="none" math="0" shadow="0">
      <root>
        <mxCell id="0" />
        <mxCell id="1" parent="0" />
        <mxCell id="atMjjcRoeHfb9M591E8j-46" value="" style="verticalLabelPosition=bottom;verticalAlign=top;html=1;shape=mxgraph.basic.arc;startAngle=0.2670479331923944;endAngle=0.125;aspect=fixed;dashed=1;shadow=0;perimeterSpacing=0;fillStyle=auto;fillColor=#d5e8d4;strokeColor=#82b366;" parent="1" vertex="1">
          <mxGeometry x="1135" y="425" width="350" height="350" as="geometry" />
        </mxCell>
        <mxCell id="atMjjcRoeHfb9M591E8j-50" value="" style="verticalLabelPosition=bottom;verticalAlign=top;html=1;shape=mxgraph.basic.acute_triangle;dx=0.5;rotation=0;dashed=1;fillColor=#d5e8d4;strokeColor=#82b366;" parent="1" vertex="1">
          <mxGeometry x="1477" y="600" width="14" height="20" as="geometry" />
        </mxCell>
        <mxCell id="atMjjcRoeHfb9M591E8j-13" value="Sprint Planning" style="strokeWidth=2;html=1;shape=mxgraph.flowchart.start_2;whiteSpace=wrap;fillColor=#d5e8d4;strokeColor=#82b366;fontSize=14;" parent="1" vertex="1">
          <mxGeometry x="1160" y="600" width="100" height="100" as="geometry" />
        </mxCell>
        <mxCell id="atMjjcRoeHfb9M591E8j-14" value="Sprint Retro" style="strokeWidth=2;html=1;shape=mxgraph.flowchart.start_2;whiteSpace=wrap;fillColor=#d5e8d4;strokeColor=#82b366;fontSize=14;" parent="1" vertex="1">
          <mxGeometry x="1260" y="450" width="100" height="100" as="geometry" />
        </mxCell>
        <mxCell id="atMjjcRoeHfb9M591E8j-15" value="Sprint Review" style="strokeWidth=2;html=1;shape=mxgraph.flowchart.start_2;whiteSpace=wrap;fillColor=#d5e8d4;strokeColor=#82b366;fontSize=14;" parent="1" vertex="1">
          <mxGeometry x="1360" y="600" width="100" height="100" as="geometry" />
        </mxCell>
        <mxCell id="atMjjcRoeHfb9M591E8j-43" value="" style="verticalLabelPosition=bottom;html=1;verticalAlign=top;strokeWidth=2;shape=mxgraph.lean_mapping.physical_pull;pointerEvents=1;fillColor=#d5e8d4;strokeColor=#82b366;" parent="1" vertex="1">
          <mxGeometry x="1260" y="560" width="100" height="100" as="geometry" />
        </mxCell>
        <mxCell id="atMjjcRoeHfb9M591E8j-52" value="Regular show-case" style="rounded=1;whiteSpace=wrap;html=1;dashed=1;fillColor=#d5e8d4;strokeColor=#82b366;fontSize=14;" parent="1" vertex="1">
          <mxGeometry x="1245" y="330" width="130" height="60" as="geometry" />
        </mxCell>
        <mxCell id="atMjjcRoeHfb9M591E8j-54" value="Regular sharing within Pod and across Pods" style="rounded=1;whiteSpace=wrap;html=1;dashed=1;fillColor=#d5e8d4;strokeColor=#82b366;fontSize=14;" parent="1" vertex="1">
          <mxGeometry x="1440" y="760" width="120" height="60" as="geometry" />
        </mxCell>
        <mxCell id="atMjjcRoeHfb9M591E8j-59" value="" style="edgeStyle=orthogonalEdgeStyle;rounded=0;orthogonalLoop=1;jettySize=auto;html=1;strokeWidth=5;targetPerimeterSpacing=5;" parent="1" source="atMjjcRoeHfb9M591E8j-56" target="atMjjcRoeHfb9M591E8j-57" edge="1">
          <mxGeometry relative="1" as="geometry" />
        </mxCell>
        <mxCell id="atMjjcRoeHfb9M591E8j-56" value="Pod Level Sprint&amp;nbsp;Cycle" style="text;html=1;strokeColor=none;fillColor=none;align=center;verticalAlign=middle;whiteSpace=wrap;rounded=0;fontSize=18;" parent="1" vertex="1">
          <mxGeometry x="1215" y="775" width="190" height="30" as="geometry" />
        </mxCell>
        <mxCell id="atMjjcRoeHfb9M591E8j-62" style="edgeStyle=orthogonalEdgeStyle;rounded=0;orthogonalLoop=1;jettySize=auto;html=1;strokeWidth=5;sourcePerimeterSpacing=5;" parent="1" source="atMjjcRoeHfb9M591E8j-57" target="atMjjcRoeHfb9M591E8j-60" edge="1">
          <mxGeometry relative="1" as="geometry" />
        </mxCell>
        <mxCell id="atMjjcRoeHfb9M591E8j-57" value="&lt;font style=&quot;font-size: 12px; font-weight: normal;&quot;&gt;Release Management&lt;/font&gt;" style="verticalLabelPosition=middle;verticalAlign=top;html=1;shape=mxgraph.infographic.numberedEntryVert;dy=25;fillColor=#d5e8d4;strokeColor=#82b366;fontSize=17;align=center;labelPosition=center;spacingTop=32;fontStyle=1;whiteSpace=wrap;" parent="1" vertex="1">
          <mxGeometry x="1270" y="940" width="80" height="120" as="geometry" />
        </mxCell>
        <mxCell id="atMjjcRoeHfb9M591E8j-69" style="edgeStyle=orthogonalEdgeStyle;rounded=0;orthogonalLoop=1;jettySize=auto;html=1;entryX=0.5;entryY=1;entryDx=0;entryDy=0;strokeWidth=5;targetPerimeterSpacing=0;sourcePerimeterSpacing=5;" parent="1" source="atMjjcRoeHfb9M591E8j-60" target="atMjjcRoeHfb9M591E8j-68" edge="1">
          <mxGeometry relative="1" as="geometry" />
        </mxCell>
        <mxCell id="atMjjcRoeHfb9M591E8j-60" value="" style="sketch=0;pointerEvents=1;shadow=0;dashed=0;html=1;strokeColor=#ae4132;fillColor=#fad9d5;labelPosition=center;verticalLabelPosition=bottom;verticalAlign=top;outlineConnect=0;align=center;shape=mxgraph.office.users.meeting;aspect=fixed;" parent="1" vertex="1">
          <mxGeometry x="1689.6999999999998" y="964" width="111.8" height="72" as="geometry" />
        </mxCell>
        <mxCell id="atMjjcRoeHfb9M591E8j-63" value="CAB" style="text;html=1;strokeColor=none;fillColor=none;align=center;verticalAlign=middle;whiteSpace=wrap;rounded=0;fontSize=14;" parent="1" vertex="1">
          <mxGeometry x="1713.97" y="1036" width="60" height="30" as="geometry" />
        </mxCell>
        <mxCell id="atMjjcRoeHfb9M591E8j-72" style="edgeStyle=orthogonalEdgeStyle;rounded=0;orthogonalLoop=1;jettySize=auto;html=1;entryX=0.5;entryY=1;entryDx=0;entryDy=0;sourcePerimeterSpacing=5;strokeWidth=5;" parent="1" source="atMjjcRoeHfb9M591E8j-67" target="atMjjcRoeHfb9M591E8j-71" edge="1">
          <mxGeometry relative="1" as="geometry" />
        </mxCell>
        <mxCell id="atMjjcRoeHfb9M591E8j-77" value="Prioritized&amp;nbsp;Epic Backlogs&amp;nbsp;" style="text;html=1;strokeColor=none;fillColor=none;align=center;verticalAlign=middle;whiteSpace=wrap;rounded=0;fontSize=14;" parent="1" vertex="1">
          <mxGeometry x="709" y="636" width="160" height="30" as="geometry" />
        </mxCell>
        <mxCell id="atMjjcRoeHfb9M591E8j-85" style="edgeStyle=orthogonalEdgeStyle;rounded=0;orthogonalLoop=1;jettySize=auto;html=1;sourcePerimeterSpacing=5;strokeWidth=5;" parent="1" source="atMjjcRoeHfb9M591E8j-78" edge="1">
          <mxGeometry relative="1" as="geometry">
            <mxPoint x="740" y="600" as="targetPoint" />
          </mxGeometry>
        </mxCell>
        <mxCell id="atMjjcRoeHfb9M591E8j-78" value="" style="sketch=0;pointerEvents=1;shadow=0;dashed=0;html=1;strokeColor=#6c8ebf;fillColor=#dae8fc;labelPosition=center;verticalLabelPosition=bottom;verticalAlign=top;outlineConnect=0;align=center;shape=mxgraph.office.concepts.list_library;aspect=fixed;" parent="1" vertex="1">
          <mxGeometry x="376" y="564" width="78" height="72" as="geometry" />
        </mxCell>
        <mxCell id="atMjjcRoeHfb9M591E8j-79" value="Demand List" style="text;html=1;strokeColor=none;fillColor=none;align=center;verticalAlign=middle;whiteSpace=wrap;rounded=0;fontSize=14;" parent="1" vertex="1">
          <mxGeometry x="370" y="636" width="90" height="30" as="geometry" />
        </mxCell>
        <mxCell id="atMjjcRoeHfb9M591E8j-88" style="edgeStyle=orthogonalEdgeStyle;rounded=0;orthogonalLoop=1;jettySize=auto;html=1;targetPerimeterSpacing=0;sourcePerimeterSpacing=0;jumpStyle=none;strokeWidth=5;" parent="1" edge="1">
          <mxGeometry relative="1" as="geometry">
            <mxPoint x="836" y="600" as="sourcePoint" />
            <mxPoint x="970" y="600" as="targetPoint" />
          </mxGeometry>
        </mxCell>
        <mxCell id="atMjjcRoeHfb9M591E8j-86" value="Release Planning" style="rounded=1;whiteSpace=wrap;html=1;dashed=1;fillColor=#d5e8d4;strokeColor=#82b366;fontSize=14;" parent="1" vertex="1">
          <mxGeometry x="980" y="570" width="120" height="60" as="geometry" />
        </mxCell>
        <mxCell id="atMjjcRoeHfb9M591E8j-89" value="&lt;div style=&quot;text-align: left;&quot;&gt;1. Prioritization&lt;/div&gt;&lt;span style=&quot;&quot;&gt;&lt;div style=&quot;text-align: left;&quot;&gt;2. PI Planning&lt;/div&gt;&lt;/span&gt;&lt;span style=&quot;&quot;&gt;&lt;div style=&quot;text-align: left;&quot;&gt;3. Strategic Roadmap&lt;/div&gt;&lt;/span&gt;" style="text;html=1;strokeColor=#d6b656;fillColor=#fff2cc;align=center;verticalAlign=middle;whiteSpace=wrap;rounded=0;fontSize=14;" parent="1" vertex="1">
          <mxGeometry x="510" y="520" width="170" height="70" as="geometry" />
        </mxCell>
        <mxCell id="atMjjcRoeHfb9M591E8j-95" style="edgeStyle=orthogonalEdgeStyle;rounded=0;orthogonalLoop=1;jettySize=auto;html=1;entryX=0;entryY=0.5;entryDx=0;entryDy=0;entryPerimeter=0;sourcePerimeterSpacing=5;strokeWidth=5;" parent="1" source="atMjjcRoeHfb9M591E8j-92" target="atMjjcRoeHfb9M591E8j-93" edge="1">
          <mxGeometry relative="1" as="geometry" />
        </mxCell>
        <mxCell id="atMjjcRoeHfb9M591E8j-92" value="&amp;nbsp;- Business requirements&lt;br style=&quot;font-size: 14px;&quot;&gt;&amp;nbsp;- Non-functional requirements&lt;br style=&quot;font-size: 14px;&quot;&gt;&amp;nbsp;- Risk/Regulatory/Compliance requirements&lt;br style=&quot;font-size: 14px;&quot;&gt;&amp;nbsp;- Technical debts&lt;br style=&quot;font-size: 14px;&quot;&gt;&amp;nbsp;- Technology roadmap&lt;br style=&quot;font-size: 14px;&quot;&gt;&amp;nbsp;- Continuous improvements&lt;br style=&quot;font-size: 14px;&quot;&gt;&amp;nbsp;- Innovation" style="shape=rect;fillColor=#dae8fc;strokeColor=#6c8ebf;fontSize=14;html=1;whiteSpace=wrap;align=left;verticalAlign=top;spacing=5;" parent="1" vertex="1">
          <mxGeometry x="285" y="164" width="260" height="148" as="geometry" />
        </mxCell>
        <mxCell id="atMjjcRoeHfb9M591E8j-96" style="edgeStyle=orthogonalEdgeStyle;rounded=0;orthogonalLoop=1;jettySize=auto;html=1;strokeWidth=5;targetPerimeterSpacing=5;" parent="1" source="atMjjcRoeHfb9M591E8j-93" target="atMjjcRoeHfb9M591E8j-78" edge="1">
          <mxGeometry relative="1" as="geometry" />
        </mxCell>
        <mxCell id="atMjjcRoeHfb9M591E8j-93" value="" style="verticalLabelPosition=bottom;verticalAlign=top;html=1;shape=mxgraph.flowchart.parallel_mode;pointerEvents=1;rotation=90;" parent="1" vertex="1">
          <mxGeometry x="367.5" y="410" width="95" height="40" as="geometry" />
        </mxCell>
        <mxCell id="atMjjcRoeHfb9M591E8j-94" value="Demand Request" style="text;html=1;strokeColor=#d6b656;fillColor=#fff2cc;align=center;verticalAlign=middle;whiteSpace=wrap;rounded=0;dashed=1;dashPattern=1 1;fontSize=14;" parent="1" vertex="1">
          <mxGeometry x="300" y="400" width="70" height="40" as="geometry" />
        </mxCell>
        <mxCell id="atMjjcRoeHfb9M591E8j-97" value="Different Demand Source" style="text;html=1;strokeColor=none;fillColor=none;align=center;verticalAlign=middle;whiteSpace=wrap;rounded=0;fontSize=18;" parent="1" vertex="1">
          <mxGeometry x="285" y="132" width="205" height="30" as="geometry" />
        </mxCell>
        <mxCell id="atMjjcRoeHfb9M591E8j-98" value="" style="group" parent="1" vertex="1" connectable="0">
          <mxGeometry x="1696.6000000000001" y="570" width="98" height="98" as="geometry" />
        </mxCell>
        <mxCell id="atMjjcRoeHfb9M591E8j-67" value="" style="editableCssRules=.*;html=1;shape=image;verticalLabelPosition=bottom;labelBackgroundColor=#ffffff;verticalAlign=top;aspect=fixed;imageAspect=0;image=data:image/svg+xml,PHN2ZyB4bWxucz0iaHR0cDovL3d3dy53My5vcmcvMjAwMC9zdmciIHhtbG5zOnY9Imh0dHBzOi8vdmVjdGEuaW8vbmFubyIgd2lkdGg9IjMyOS45MjU5OTcyMzE3OTM4IiBoZWlnaHQ9IjM3OC4yODQ5OTAzMTEyNzg4IiB2aWV3Qm94PSIwIDAgODcuMjkyOTk5MjY3NTc4MTIgMTAwLjA4Nzk5NzQzNjUyMzQ0Ij4mI3hhOzxzdHlsZSB0eXBlPSJ0ZXh0L2NzcyI+LnN0MCB7IGZpbGw6IHJnYigyMTMsIDIzMiwgMjEyKTsgfSAuc3QxIHsgZmlsbDogcmdiKDEwMiwgMTU3LCAyNDYpOyB9IC5zdDIgeyBmaWxsOiByZ2IoMTMwLCAxNzksIDEwMik7IH0gPC9zdHlsZT4mI3hhOwk8cGF0aCBjbGFzcz0ic3QwIiBkPSJNNDMuNzUxIDBMMCAyNS40NjV2Mi41ODggNDYuOTJsNDMuNzUyIDI1LjExNSA0My41NDEtMjUuMTIxVjI1LjQ3M3ptMi40MzggMTEuODUzbDMyLjEwMyAxOC43ODJWNjkuNzdMNDMuNzM5IDg5LjcwNSA5IDY5Ljc2MlYzMC42NDFsMzIuMTktMTguNzM2djE0LjE1NEwyNC41MDMgMzYuMTUzbDE5LjE3MiAxMS41MDIgMTguODg2LTExLjU1NC0xNi4zNzItMTAuMDI0eiIvPiYjeGE7CTxwYXRoIGNsYXNzPSJzdDEiIGQ9Ik0yMi4wMjUgNDAuNDk2bC4xNjYgMTkuMTQzLTEzLjI0NyA3LjMzdjIuNzQybDIuNjM3IDEuNTE0IDEyLjY0OC02Ljk5OUw0MS4xOSA3NC44MjhWNTEuOTkzeiIvPiYjeGE7CTxwYXRoIGNsYXNzPSJzdDIiIGQ9Ik02NS4zNDQgNDAuMjZMNDYuMTg5IDUxLjk3OXYyMi44NDdMNjMuMDg4IDY0LjI1bDEyLjUzOSA2Ljk3NCAyLjYwOS0xLjUwNXYtMi43NjVsLTEyLjc4NC03LjExMnoiLz4mI3hhOzwvc3ZnPg==;" parent="atMjjcRoeHfb9M591E8j-98" vertex="1">
          <mxGeometry x="16.86999999999989" width="64.8" height="72" as="geometry" />
        </mxCell>
        <mxCell id="atMjjcRoeHfb9M591E8j-68" value="CD / Release" style="text;html=1;strokeColor=none;fillColor=none;align=center;verticalAlign=middle;whiteSpace=wrap;rounded=0;fontSize=14;" parent="atMjjcRoeHfb9M591E8j-98" vertex="1">
          <mxGeometry y="68" width="98" height="30" as="geometry" />
        </mxCell>
        <mxCell id="atMjjcRoeHfb9M591E8j-99" value="" style="group" parent="1" vertex="1" connectable="0">
          <mxGeometry x="1655.6" y="202" width="180" height="102" as="geometry" />
        </mxCell>
        <mxCell id="atMjjcRoeHfb9M591E8j-70" value="" style="sketch=0;pointerEvents=1;shadow=0;dashed=0;html=1;strokeColor=#82b366;fillColor=#d5e8d4;aspect=fixed;labelPosition=center;verticalLabelPosition=bottom;verticalAlign=top;align=center;outlineConnect=0;shape=mxgraph.vvd.nsx_dashboard;" parent="atMjjcRoeHfb9M591E8j-99" vertex="1">
          <mxGeometry x="51.30000000000018" width="77.41" height="72" as="geometry" />
        </mxCell>
        <mxCell id="atMjjcRoeHfb9M591E8j-71" value="SRE Observability &amp;amp; Monitoring" style="text;html=1;strokeColor=none;fillColor=none;align=center;verticalAlign=middle;whiteSpace=wrap;rounded=0;fontSize=14;" parent="atMjjcRoeHfb9M591E8j-99" vertex="1">
          <mxGeometry y="72" width="180" height="30" as="geometry" />
        </mxCell>
        <mxCell id="atMjjcRoeHfb9M591E8j-103" style="edgeStyle=orthogonalEdgeStyle;rounded=0;orthogonalLoop=1;jettySize=auto;html=1;sourcePerimeterSpacing=5;targetPerimeterSpacing=0;strokeWidth=5;" parent="1" source="atMjjcRoeHfb9M591E8j-101" edge="1">
          <mxGeometry relative="1" as="geometry">
            <mxPoint x="550" y="238" as="targetPoint" />
          </mxGeometry>
        </mxCell>
        <mxCell id="atMjjcRoeHfb9M591E8j-101" value="PO regular screening improvement opportunities&amp;nbsp;" style="text;html=1;strokeColor=#6c8ebf;fillColor=#dae8fc;align=center;verticalAlign=middle;whiteSpace=wrap;rounded=0;fontSize=14;" parent="1" vertex="1">
          <mxGeometry x="800" y="193" width="194" height="90" as="geometry" />
        </mxCell>
        <mxCell id="atMjjcRoeHfb9M591E8j-102" style="edgeStyle=orthogonalEdgeStyle;rounded=0;orthogonalLoop=1;jettySize=auto;html=1;targetPerimeterSpacing=0;sourcePerimeterSpacing=5;strokeWidth=5;" parent="1" source="atMjjcRoeHfb9M591E8j-70" edge="1">
          <mxGeometry relative="1" as="geometry">
            <mxPoint x="1000" y="238" as="targetPoint" />
          </mxGeometry>
        </mxCell>
        <mxCell id="atMjjcRoeHfb9M591E8j-109" style="edgeStyle=orthogonalEdgeStyle;rounded=0;orthogonalLoop=1;jettySize=auto;html=1;strokeWidth=5;endArrow=none;endFill=0;" parent="1" source="atMjjcRoeHfb9M591E8j-104" edge="1">
          <mxGeometry relative="1" as="geometry">
            <mxPoint x="1300" y="240" as="targetPoint" />
          </mxGeometry>
        </mxCell>
        <mxCell id="atMjjcRoeHfb9M591E8j-104" value="" style="html=1;verticalLabelPosition=bottom;align=center;labelBackgroundColor=#ffffff;verticalAlign=top;strokeWidth=2;shadow=0;dashed=0;shape=mxgraph.ios7.icons.chat;aspect=fixed;fillColor=#dae8fc;strokeColor=#6c8ebf;" parent="1" vertex="1">
          <mxGeometry x="1240" y="60" width="120" height="72" as="geometry" />
        </mxCell>
        <mxCell id="atMjjcRoeHfb9M591E8j-108" value="Customer feedback" style="text;html=1;strokeColor=none;fillColor=none;align=center;verticalAlign=middle;whiteSpace=wrap;rounded=0;fontSize=14;" parent="1" vertex="1">
          <mxGeometry x="1370" y="81" width="60" height="30" as="geometry" />
        </mxCell>
        <mxCell id="atMjjcRoeHfb9M591E8j-110" value="" style="strokeWidth=2;html=1;shape=mxgraph.flowchart.multi-document;whiteSpace=wrap;fillColor=#d5e8d4;strokeColor=#82b366;" parent="1" vertex="1">
          <mxGeometry x="750" y="564" width="78" height="72" as="geometry" />
        </mxCell>
        <mxCell id="atMjjcRoeHfb9M591E8j-111" value="" style="verticalLabelPosition=bottom;verticalAlign=top;html=1;shape=mxgraph.basic.arc;strokeColor=#10739E;strokeWidth=6;startAngle=0.3;endAngle=0.1;rotation=90;aspect=fixed;" parent="1" vertex="1">
          <mxGeometry x="1505" y="390" width="200" height="200" as="geometry" />
        </mxCell>
        <mxCell id="atMjjcRoeHfb9M591E8j-112" value="&lt;font style=&quot;font-size: 20px;&quot; color=&quot;#10739e&quot;&gt;Delivery Performance Measurements with &lt;b style=&quot;font-size: 20px;&quot;&gt;&lt;u style=&quot;font-size: 20px;&quot;&gt;DORA&lt;/u&gt;&lt;/b&gt; framework&lt;/font&gt;" style="text;html=1;strokeColor=none;fillColor=none;align=center;verticalAlign=middle;whiteSpace=wrap;rounded=0;fontSize=20;" parent="1" vertex="1">
          <mxGeometry x="1540" y="420" width="130" height="130" as="geometry" />
        </mxCell>
      </root>
    </mxGraphModel>
  </diagram>
</mxfile>
